<?xml version="1.0" standalone="no"?>
<!DOCTYPE svg PUBLIC "-//W3C//DTD SVG 20010904//EN"
 "http://www.w3.org/TR/2001/REC-SVG-20010904/DTD/svg10.dtd">
<svg version="1.0" xmlns="http://www.w3.org/2000/svg"
 width="999.000000pt" height="999.000000pt" viewBox="0 0 999.000000 999.000000"
 preserveAspectRatio="xMidYMid meet">

<g transform="translate(0.000000,999.000000) scale(0.100000,-0.100000)"
fill="#000000" stroke="none">
<path d="M4839 8809 c-41 -44 -84 -124 -123 -227 -18 -50 -50 -113 -70 -140
-80 -109 -98 -204 -50 -261 24 -29 25 -34 19 -113 -9 -118 -37 -205 -88 -274
-64 -87 -62 -86 -189 -88 -93 -1 -123 -5 -172 -25 -114 -45 -188 -139 -227
-288 -17 -63 -23 -123 -29 -318 -7 -223 -18 -306 -42 -330 -4 -4 -21 22 -39
56 -61 123 -190 222 -345 268 -89 26 -120 26 -164 1 -19 -11 -58 -31 -87 -44
-136 -64 -276 -195 -334 -312 -28 -57 -34 -79 -33 -134 0 -86 15 -112 144
-255 148 -165 216 -259 241 -332 21 -64 52 -113 64 -101 4 3 9 24 12 46 5 37
-1 49 -90 183 -52 79 -114 180 -138 223 -38 72 -43 88 -47 160 -3 70 0 87 20
126 13 24 28 45 33 47 9 2 41 -64 226 -468 63 -137 68 -154 83 -270 49 -383
59 -649 29 -724 -10 -25 -18 -79 -20 -141 -6 -156 32 -251 146 -357 28 -27 68
-55 89 -64 50 -22 165 -22 216 0 32 14 37 15 32 2 -21 -56 -38 -198 -32 -276
13 -177 112 -405 226 -520 80 -81 140 -111 288 -144 131 -29 147 -36 172 -78
26 -43 25 -73 -5 -134 -83 -165 -416 -452 -1055 -908 -224 -159 -543 -401
-627 -474 -79 -69 -133 -139 -133 -174 0 -10 10 -27 21 -38 16 -16 29 -20 54
-16 19 3 170 69 337 148 898 421 1415 598 1938 663 297 37 351 40 880 41 523
1 537 2 615 24 202 57 325 122 431 226 82 81 111 144 100 220 -11 68 -50 114
-218 254 -249 208 -581 541 -879 881 -140 160 -442 525 -460 555 -68 115 -67
477 2 865 25 143 86 396 103 429 13 24 13 24 29 -20 9 -24 37 -99 62 -166 102
-280 190 -401 302 -419 62 -10 123 24 214 117 90 91 161 200 196 301 28 80 28
99 -1 310 -27 206 -46 515 -46 767 0 257 -1 245 66 578 2 13 21 34 42 47 83
53 120 123 128 248 5 60 13 94 29 124 31 52 103 119 157 143 198 88 405 197
395 207 -2 2 -43 -9 -91 -26 -48 -16 -128 -34 -178 -39 -117 -13 -169 -39
-277 -136 -84 -76 -109 -87 -130 -61 -15 18 17 84 83 173 55 73 86 89 209 109
50 8 110 24 132 34 45 22 174 110 161 110 -5 0 -49 -14 -98 -31 -72 -24 -109
-31 -191 -33 -170 -5 -188 -15 -319 -173 -38 -45 -81 -91 -98 -103 l-30 -21 0
56 c0 64 20 118 58 158 38 41 68 54 171 77 166 37 236 78 322 189 60 78 63 96
8 46 -59 -53 -142 -88 -318 -135 -244 -65 -298 -101 -380 -257 -40 -77 -65
-110 -112 -152 -43 -38 -68 -71 -91 -118 -28 -59 -30 -72 -25 -132 4 -36 9
-77 12 -91 6 -22 2 -27 -29 -38 -20 -7 -47 -28 -61 -47 -24 -31 -25 -38 -19
-111 l6 -79 -36 -33 c-41 -37 -41 -39 -22 -142 21 -112 26 -294 7 -274 -12 12
-33 118 -81 419 -57 350 -75 422 -115 462 -29 29 -39 33 -87 33 -61 0 -129
-21 -232 -71 -45 -22 -70 -30 -73 -22 -2 6 -21 39 -41 73 -51 83 -149 180
-222 219 -33 18 -60 33 -60 34 0 1 7 38 16 82 35 183 14 357 -51 422 -43 43
-77 43 -116 2z m93 -79 c45 -95 18 -401 -41 -448 -14 -11 -13 -13 9 -19 14 -4
60 -24 102 -45 106 -53 185 -140 257 -281 33 -65 80 -139 122 -189 87 -104 99
-130 112 -250 13 -118 -3 -491 -24 -552 -12 -32 -25 -45 -74 -73 -76 -42 -219
-88 -341 -110 -79 -14 -103 -15 -141 -5 -132 36 -186 140 -253 493 -35 183
-62 264 -115 350 l-36 59 36 43 c63 73 115 191 124 282 5 44 14 93 20 109 14
34 1 84 -29 111 -44 40 -29 120 38 196 17 20 57 96 88 170 89 208 111 232 146
159z m724 -728 c32 -21 45 -77 109 -468 68 -415 83 -468 132 -462 36 4 64 46
74 110 9 53 -3 200 -22 287 -8 37 -7 45 8 56 16 12 19 11 26 -8 5 -12 6 -43 3
-69 -3 -27 -1 -48 3 -48 13 0 60 50 66 71 10 29 22 23 51 -26 44 -76 43 -141
-5 -330 -80 -317 -105 -500 -99 -707 4 -109 10 -158 26 -208 52 -160 174 -218
326 -155 33 13 62 22 64 20 8 -8 -26 -87 -65 -154 -47 -80 -161 -203 -219
-237 -53 -31 -89 -26 -140 18 -65 57 -123 174 -214 431 -21 59 -48 123 -60
143 l-22 35 31 153 c17 84 34 187 37 228 7 79 1 95 -35 83 -15 -4 -19 -19 -24
-78 -9 -102 -72 -399 -103 -482 -98 -266 -180 -844 -154 -1097 19 -196 24
-205 241 -465 501 -599 823 -935 1194 -1243 121 -101 146 -126 161 -165 14
-38 15 -52 6 -84 -32 -104 -172 -213 -370 -288 -153 -57 -154 -57 -727 -58
-571 -1 -686 -8 -1005 -61 -479 -78 -1081 -292 -1805 -639 -214 -103 -337
-157 -342 -151 -9 9 100 117 192 191 50 39 200 152 335 250 496 361 579 422
750 555 113 87 231 190 331 290 134 133 161 166 193 229 42 85 45 126 15 189
-31 63 -76 88 -211 116 -166 35 -229 70 -305 171 -80 104 -157 302 -169 428
-13 145 29 304 114 429 132 196 224 439 297 786 20 92 44 205 55 252 11 47 25
151 31 233 14 172 2 388 -34 602 -18 107 -25 130 -40 133 -41 8 -45 -2 -30
-80 60 -317 66 -630 14 -868 -10 -47 -32 -152 -50 -234 -39 -189 -91 -377
-102 -371 -12 8 -84 198 -122 325 -35 115 -80 305 -93 390 -4 25 -10 50 -15
55 -4 6 -3 44 3 85 14 99 3 286 -22 380 -26 99 -25 167 5 281 22 83 25 115 25
275 0 229 16 331 68 433 61 122 148 171 303 171 81 0 82 0 116 -36 68 -72 98
-154 147 -404 43 -217 75 -319 124 -390 44 -65 118 -117 180 -126 164 -25 567
107 609 199 29 62 37 150 37 407 1 321 -3 340 -95 450 -75 90 -113 146 -105
158 7 11 145 80 183 92 36 11 105 12 119 2z m558 -267 c17 -15 26 -34 26 -54
0 -25 5 -30 30 -36 34 -8 82 1 123 21 26 14 27 14 27 -10 0 -14 -14 -90 -31
-168 -30 -139 -31 -150 -31 -393 1 -318 36 -790 69 -923 5 -20 -3 -26 -73 -58
-125 -58 -199 -40 -249 61 -74 150 -59 456 45 884 28 114 50 227 50 257 0 69
-23 137 -68 198 -32 44 -36 55 -37 120 -1 39 -5 78 -9 87 -5 10 1 19 16 27 40
19 83 14 112 -13z m-2802 -1025 c10 -14 26 -53 34 -85 24 -96 88 -212 175
-320 105 -131 124 -163 147 -265 26 -109 79 -254 103 -283 18 -22 18 -22 19
36 0 31 -9 97 -19 145 -11 48 -24 124 -30 169 -12 93 -31 137 -122 275 -107
163 -175 316 -151 340 16 16 86 -29 160 -104 75 -76 93 -101 137 -191 44 -90
59 -183 52 -332 -4 -103 -2 -138 20 -245 44 -218 133 -501 200 -634 29 -58 28
-67 -32 -191 -85 -177 -162 -276 -244 -312 -49 -21 -148 -20 -191 2 -52 27
-124 105 -155 170 -40 81 -47 210 -16 302 26 77 28 263 6 478 -19 183 -18 203
4 140 55 -154 111 -201 111 -94 0 113 -63 321 -220 719 -44 113 -80 217 -80
231 0 32 37 81 58 77 8 -2 23 -14 34 -28z"/>
<path d="M4965 7677 c-100 -34 -160 -78 -181 -134 -22 -56 -15 -215 14 -328
11 -44 23 -108 26 -142 9 -81 27 -124 68 -158 31 -26 35 -27 128 -23 85 4 103
9 172 42 87 43 151 94 174 138 8 16 22 72 31 125 12 76 13 108 3 160 -22 129
-114 261 -211 302 -63 28 -169 36 -224 18z"/>
</g>
</svg>
